HIERARCHY
ROOT Hips
{
  OFFSET 13.6774 106.653 -34.4427
  CHANNELS 6 Xposition Yposition Zposition Zrotation Xrotation Yrotation
  JOINT ToSpine
  {
    OFFSET -2.69724 7.43032 -0.144315
    CHANNELS 3 Zrotation Xrotation Yrotation
    JOINT Spine
    {
      OFFSET -0.0310711 10.7595 1.96963
      CHANNELS 3 Zrotation Xrotation Yrotation
      JOINT Spine1
      {
        OFFSET 19.9056 3.91189 0.764692
        CHANNELS 3 Zrotation Xrotation Yrotation
        JOINT Neck
        {
          OFFSET 25.9749 7.03908 -0.130764
          CHANNELS 3 Zrotation Xrotation Yrotation
          JOINT Head
          {
            OFFSET 9.52751 0.295786 -0.907742
            CHANNELS 3 Zrotation Xrotation Yrotation
            End Site
            {
              OFFSET 16.4037 0.713936 2.7358
            }
          }
        }
        JOINT LeftShoulder
        {
          OFFSET 17.7449 4.33886 11.7777
          CHANNELS 3 Zrotation Xrotation Yrotation
          JOINT LeftArm
          {
            OFFSET 0.911315 1.27913 9.80584
            CHANNELS 3 Zrotation Xrotation Yrotation
            JOINT LeftForeArm
            {
              OFFSET 28.6126 1.18197 -3.53199
              CHANNELS 3 Zrotation Xrotation Yrotation
              JOINT LeftHand
              {
                OFFSET 27.5088 0.0218783 0.327423
                CHANNELS 3 Zrotation Xrotation Yrotation
                End Site
                {
                  OFFSET 18.6038 -0.000155887 0.382096
                }
              }
            }
          }
        }
        JOINT RightShoulder
        {
          OFFSET 17.1009 2.89543 -12.2328
          CHANNELS 3 Zrotation Xrotation Yrotation
          JOINT RightArm
          {
            OFFSET 1.4228 0.178766 -10.211
            CHANNELS 3 Zrotation Xrotation Yrotation
            JOINT RightForeArm
            {
              OFFSET 28.733 1.87905 2.64907
              CHANNELS 3 Zrotation Xrotation Yrotation
              JOINT RightHand
              {
                OFFSET 27.4588 0.290562 -0.101845
                CHANNELS 3 Zrotation Xrotation Yrotation
                End Site
                {
                  OFFSET 17.8396 -0.255518 -0.000602873
                }
              }
            }
          }
        }
      }
    }
  }
  JOINT LeftUpLeg
  {
    OFFSET -5.61296 -2.22332 -10.2353
    CHANNELS 3 Zrotation Xrotation Yrotation
    JOINT LeftLeg
    {
      OFFSET 2.56703 -44.7417 -7.93097
      CHANNELS 3 Zrotation Xrotation Yrotation
      JOINT LeftFoot
      {
        OFFSET 3.16933 -46.5642 -3.96578
        CHANNELS 3 Zrotation Xrotation Yrotation
        JOINT LeftToeBase
        {
          OFFSET 0.346054 -6.02161 12.8035
          CHANNELS 3 Zrotation Xrotation Yrotation
          End Site
          {
            OFFSET 0.134235 -1.35082 5.13018
          }
        }
      }
    }
  }
  JOINT RightUpLeg
  {
    OFFSET -5.7928 -1.72406 10.6446
    CHANNELS 3 Zrotation Xrotation Yrotation
    JOINT RightLeg
    {
      OFFSET -2.57161 -44.7178 -7.85259
      CHANNELS 3 Zrotation Xrotation Yrotation
      JOINT RightFoot
      {
        OFFSET -3.10148 -46.5936 -4.03391
        CHANNELS 3 Zrotation Xrotation Yrotation
        JOINT RightToeBase
        {
          OFFSET -0.0828122 -6.13587 12.8035
          CHANNELS 3 Zrotation Xrotation Yrotation
          End Site
          {
            OFFSET -0.131328 -1.35082 5.13018
          }
        }
      }
    }
  }
}
MOTION
Frames: 17
Frame Time: 0.03333333333333333
0.0000 93.1000 0.0000 71.4733 -24.0436 -6.4366 -71.0435 -0.6741 88.0496 82.0913 68.1645 -2.4239 6.1912 16.5010 3.2222 -118.6108 25.2137 155.6237 -175.3553 70.7011 -155.6344 -0.7740 -15.3633 -19.4294 -72.8780 35.0876 -147.6098 8.9409 -2.2959 -95.7727 0.2036 0.8720 -0.2220 -1.1001 6.7115 24.0737 -134.4860 -21.9545 73.8089 12.5000 7.9963 122.4053 0.1130 -0.6592 0.3281 -50.1016 12.7733 90.7803 -3.6953 39.9824 -11.0185 -1.7207 -16.8328 -2.5236 2.4787 -9.1848 8.9146 -33.8181 -17.1106 87.1432 -0.9113 27.6352 7.0805 -0.4766 12.1657 -0.8975 1.5112 -6.4700 -7.6033 
0.0000 93.1000 0.0000 71.6825 -25.6876 -5.7696 -71.0564 -0.3278 88.1413 82.7655 68.2950 -1.6233 5.8393 17.1822 3.4781 -118.6680 25.8743 155.4964 -174.5801 70.9842 -158.7404 -0.4494 -14.9248 -20.0572 -72.7808 35.8809 -148.4971 8.7173 -2.4368 -96.2199 0.4921 0.6429 -0.4450 -0.9567 6.7267 24.1180 -135.5104 -21.3228 74.4005 13.0831 9.0265 122.2924 0.3249 -0.3692 0.0244 -51.0880 10.9782 91.5240 -2.9164 39.1692 -10.3586 -1.0281 -16.0534 -2.4890 1.5851 -8.4879 9.3529 -33.8597 -17.4770 85.2071 -0.2368 28.9950 1.1089 -1.1920 11.2967 -0.4654 1.7679 -4.0820 -7.7725 
0.0000 93.1000 0.0000 72.2263 -27.3480 -5.8738 -71.1952 -0.1704 88.2050 84.0282 69.1434 -3.7258 5.2689 17.5083 4.3190 -118.7297 26.1960 155.4527 -175.2339 71.7918 -158.4666 -0.1268 -15.1705 -19.8764 -73.2525 35.0532 -147.5509 8.5727 -1.6385 -97.2867 0.1622 0.4160 -0.1777 -1.1305 6.3619 25.0756 -137.4524 -19.8945 73.8577 13.4884 9.3069 123.3154 -0.0899 -0.0591 -0.0441 -52.6487 10.2298 92.4928 -3.0868 37.8586 -8.0628 -1.0192 -16.9692 -2.0962 1.1183 -7.7005 7.8540 -33.0674 -17.5473 82.1211 0.8027 33.3308 -1.8585 -3.2949 8.1264 -0.2096 0.1137 -6.0611 -1.7989 
0.0000 93.1000 0.0000 72.3676 -27.6916 -6.0570 -71.3058 -0.7116 87.9271 85.8097 69.7552 -5.3632 4.5690 17.9433 3.9249 -118.3662 26.2481 155.6010 -174.2193 71.9942 -159.8255 -0.4126 -15.0604 -20.2194 -72.9173 33.9967 -147.5438 9.3376 -1.9813 -98.1170 -0.2864 0.3622 0.0667 -1.7122 6.4028 26.0234 -138.3507 -18.8287 73.2592 14.1373 10.2541 124.5582 -0.5764 -0.0090 -0.3965 -53.1966 9.7171 93.1852 -3.0506 36.6661 -7.1752 -0.2392 -16.6392 -1.4591 0.8112 -6.1867 8.8613 -32.1198 -16.7549 80.1111 -0.0917 39.0346 -5.0485 -4.6103 5.6226 -0.7975 -0.4603 -8.3707 3.8830 
0.0000 93.1000 0.0000 72.4216 -29.0038 -5.7830 -71.4006 -0.1825 87.7271 86.8190 70.1536 -7.2956 3.6357 18.1677 5.3889 -117.5911 27.1680 157.1064 -175.2501 71.8875 -157.5802 -0.1601 -14.7917 -20.9949 -73.3673 34.5621 -145.3775 10.1099 -1.4144 -99.0591 -0.1523 0.5837 -0.0977 -1.0888 5.8523 26.2346 -138.8468 -18.9122 73.3486 14.1423 10.2067 124.4983 0.3197 -0.2508 -0.0374 -53.7688 9.3229 94.1631 -2.8723 36.1796 -7.1027 0.0617 -15.8545 -2.1326 0.7637 -6.6173 11.1386 -32.3249 -16.5761 78.6524 0.6960 43.1343 -4.9265 -4.6931 4.2954 -0.0337 0.4679 -10.0297 2.4607 
0.0000 93.1000 0.0000 73.5124 -29.4344 -6.3954 -71.2674 -0.8038 87.6394 85.2072 70.2517 -5.6854 3.8978 17.9212 5.6712 -117.6900 27.4150 156.8260 -175.4719 72.2071 -156.6277 -0.5105 -14.9857 -21.3208 -72.2746 35.1174 -145.3333 10.3215 -1.5572 -99.4675 -0.3225 0.6488 0.2138 -1.6314 5.9020 27.2461 -138.1974 -18.7551 72.3722 13.6425 9.8182 124.3805 -0.1641 -0.2450 -0.1380 -53.9107 7.8106 93.3990 -2.9327 36.2475 -7.6172 0.1127 -15.7491 -1.6237 1.1973 -7.0899 12.8898 -33.2196 -16.7385 77.5102 1.2355 46.2572 -4.8534 -4.2739 3.2028 -0.5570 0.9073 -10.6350 1.0004 
0.0000 93.1000 0.0000 73.3127 -29.5178 -6.2593 -71.1431 -0.6262 87.5264 83.9024 70.1388 -3.7840 4.5457 17.4361 5.9980 -117.6259 27.7616 157.0989 -175.6133 72.4856 -156.8350 -0.6234 -14.8132 -21.8243 -71.5432 36.5235 -145.1499 10.6896 -2.1063 -100.2351 -0.2023 1.0757 0.2805 -1.3226 6.0430 28.1255 -137.0228 -18.8862 72.4540 13.0017 9.3765 124.5302 0.5194 -0.6578 0.4296 -54.0887 7.6112 93.4749 -2.6905 36.3290 -8.2110 0.2688 -15.7585 -2.2763 1.0559 -8.0034 13.3354 -34.4140 -17.3967 75.5579 0.9780 46.7975 -5.0461 -4.6049 3.1288 0.1313 1.7032 -12.7400 2.7839 
0.0000 93.1000 0.0000 73.3008 -29.1890 -6.0545 -71.0578 2.1943 87.4854 82.4443 69.4299 -1.0893 6.1589 17.2270 5.3216 -120.0057 28.4880 159.0596 -178.2598 72.7192 -156.0219 2.2764 -15.0649 -21.3220 -70.4151 36.2326 -146.1600 11.0133 -3.2006 -99.9789 0.2184 -2.4798 -0.7528 -1.8370 6.8119 27.9596 -136.2345 -19.3508 72.2638 13.3786 9.3724 124.1341 -1.1390 3.5223 -0.6767 -54.2991 7.5095 93.0803 -3.1327 36.1693 -7.5427 -0.2548 -16.1171 -0.0447 1.3735 -6.7771 12.3215 -35.9376 -17.8968 75.4898 0.7186 43.6845 -4.7874 -2.6892 3.1782 0.0696 -0.0022 -11.5636 3.2672 
0.0000 93.1000 0.0000 73.3494 -29.4860 -6.7200 -71.2844 -0.0910 87.5824 79.3440 68.8944 2.1877 5.7242 17.0020 4.9731 -120.8572 28.9611 159.6428 177.7522 72.4358 -153.8620 -0.2129 -13.7611 -21.4412 -70.1138 36.5360 -146.2342 11.1981 -3.0786 -100.6391 0.1132 0.5442 -0.1138 -1.4647 5.9526 28.1058 -136.6421 -20.8379 71.4418 12.4425 8.7581 123.5422 0.0819 -0.1719 0.1931 -53.7707 6.2870 92.4922 -3.0157 37.0273 -7.0334 0.0710 -17.4889 -2.3336 -0.6129 -5.5152 11.3751 -36.1155 -18.3619 75.0213 -0.0453 42.4127 -7.2733 -1.8230 3.5866 0.0521 0.2976 -10.5525 8.8788 
0.0000 93.1000 0.0000 72.6106 -29.1360 -4.8609 -71.2849 -0.3577 87.5079 79.0850 69.1968 3.0549 6.4875 17.1496 4.3961 -121.7078 28.9019 159.0039 177.6806 72.4661 -153.1237 -0.2599 -13.9170 -21.4989 -69.3857 36.5114 -147.1807 12.0464 -2.8179 -101.2629 -0.2675 0.2819 -0.0586 -2.0201 6.7040 29.3471 -136.6641 -21.2213 71.2455 12.4413 8.4385 123.1709 -0.0132 0.1134 -0.3184 -53.0967 5.9099 92.5923 -3.0391 37.4796 -5.6192 0.1752 -16.9587 -1.7334 -0.5533 -4.3575 10.8095 -36.4255 -18.0786 75.3018 0.1447 41.1732 -6.9092 -1.6451 3.9377 -0.4590 -0.0640 -10.0060 8.3883 
0.0000 93.1000 0.0000 72.8200 -29.1377 -5.1331 -71.3605 -0.2057 87.6655 79.1700 69.3064 1.8298 5.5879 17.2730 5.0031 -121.8376 29.2547 159.5844 175.9333 72.8579 -150.9874 -0.2468 -13.9879 -21.1234 -69.0404 36.3152 -147.2982 12.2583 -2.8080 -101.4256 -0.2697 0.4392 0.0343 -1.7988 6.5970 29.3150 -136.0047 -21.1591 71.0450 12.9302 7.9924 122.1705 0.2802 -0.0315 0.0397 -53.3271 6.2270 93.4525 -3.0639 37.8979 -5.8595 0.9880 -15.9462 -1.9766 0.1157 -5.0279 7.6089 -37.0774 -17.1546 76.2579 0.3078 40.3006 -7.1617 -0.8623 4.4351 -0.6426 0.2345 -9.7730 5.3449 
0.0000 93.1000 0.0000 73.1402 -30.2912 -5.2418 -71.5682 0.4242 87.7662 81.8748 69.3855 -0.6283 5.1373 17.2098 5.8414 -121.4881 29.1771 159.8482 176.0136 72.9417 -151.6640 0.5014 -14.3114 -21.7589 -68.4352 36.1054 -147.3289 12.0656 -2.8114 -101.6316 0.2342 -0.6246 -0.0679 -2.1692 7.3310 29.1831 -135.6354 -21.1325 70.9141 11.9322 7.9618 121.8381 -0.0352 1.1871 -0.3703 -53.1900 7.0815 93.3652 -3.0853 38.2675 -4.0879 1.3880 -16.0853 -1.1915 0.2126 -3.9822 4.6194 -37.0890 -16.9954 75.9177 -0.0536 39.0784 -6.7723 -1.5738 3.9193 -0.9216 0.0370 -10.3818 6.3283 
0.0000 93.1000 0.0000 73.7429 -30.3837 -5.2649 -71.4866 0.3645 87.8266 82.7884 70.0201 -1.4812 4.3764 17.3187 5.7706 -121.7837 30.1240 161.0791 175.3161 73.2018 -150.1928 0.2958 -14.0708 -22.1075 -68.3861 35.4755 -147.1778 11.2163 -3.0250 -101.5018 0.4376 -0.2020 -0.2711 -1.8882 7.1604 28.8813 -135.4396 -21.2355 70.9697 12.3058 8.3749 121.6825 0.1860 0.6191 0.0536 -53.0978 6.7699 94.1368 -2.6594 37.9564 -5.3964 1.5892 -15.9178 -1.8510 0.8778 -6.1528 6.2257 -37.5031 -17.2061 76.0311 0.6591 38.5223 -7.2224 -1.5550 4.8143 -0.6726 0.0709 -9.8849 6.7725 
0.0000 93.1000 0.0000 74.1736 -30.6150 -5.3123 -71.3966 -0.3124 87.7993 82.0282 70.1415 -0.3949 4.2671 17.4143 5.3416 -122.7495 30.4431 159.7905 176.1863 73.1093 -151.5415 -0.2701 -13.9225 -22.1951 -68.0702 35.7043 -148.2193 11.7306 -2.9712 -101.2731 0.1095 0.1697 -0.1513 -2.1590 7.0994 28.9830 -135.4050 -21.4685 71.3741 12.8632 8.2870 121.3029 0.1034 0.1562 0.0237 -52.3659 6.8016 94.0040 -2.9043 38.8577 -4.9186 2.0229 -16.0869 -1.9735 1.3344 -6.1816 5.9918 -38.2040 -17.2286 75.9542 0.5138 38.2094 -7.1407 -0.7850 4.7657 -1.2234 0.0407 -8.5161 8.2624 
0.0000 93.1000 0.0000 73.9210 -31.3253 -5.8156 -71.3074 0.0398 88.0015 79.8188 70.3690 2.0176 5.6164 17.6238 5.2021 -122.7078 29.9514 159.4502 175.4703 73.1564 -151.5003 -0.0749 -13.7806 -21.3975 -68.1509 35.2266 -147.9297 12.2519 -3.0468 -101.3665 0.0333 0.3782 -0.3421 -1.6466 7.1457 29.2559 -136.0571 -22.6523 72.0658 12.9470 8.5227 121.1977 0.4526 -0.1285 0.4621 -52.7623 6.5036 94.1241 -2.8804 38.7466 -4.0910 2.4502 -15.9489 -2.5113 0.6452 -7.3918 6.9120 -38.2075 -16.9563 76.2778 0.3289 37.2822 -6.1797 -0.1214 5.4448 -0.8024 0.5947 -8.4086 6.2527 
0.0000 93.1000 0.0000 73.7851 -31.5249 -5.9973 -71.3445 0.4344 87.8206 79.1076 70.0963 1.9735 5.5953 17.8686 5.5955 -122.4505 30.2149 159.5500 176.0203 73.0862 -151.5440 0.3176 -13.8686 -22.2769 -68.4599 35.0635 -148.4055 11.7345 -2.9204 -101.5714 -0.0608 -0.1261 -0.4601 -1.6954 7.1674 28.9159 -135.8734 -23.0235 72.2483 12.3764 8.2245 120.9937 0.4287 0.4554 0.0969 -53.4789 5.9480 95.2362 -3.1202 38.8537 -3.5961 2.0370 -15.8223 -2.1374 0.8447 -6.9851 7.4832 -37.9107 -16.6514 76.7704 -0.5079 37.2226 -5.0196 -1.4181 5.5638 -0.4494 -0.0234 -8.2886 7.2113 
0.0000 93.1000 0.0000 74.1075 -31.7638 -6.2810 -71.3879 0.4753 87.8655 79.7819 70.0451 1.0710 5.5246 17.9495 5.3216 -122.6595 30.2764 158.9286 176.4902 73.2324 -151.5805 0.4946 -13.7942 -22.4187 -68.3668 35.0539 -148.1562 11.3217 -2.9037 -101.3250 0.1640 -0.4162 -0.2956 -1.8774 7.0960 29.1130 -135.5747 -23.3724 72.1577 12.3855 7.6211 121.4069 0.2265 0.8148 -0.2890 -53.3721 5.7548 95.3297 -3.1791 38.8643 -3.7373 2.0176 -15.8697 -1.7833 1.0633 -6.5705 6.8734 -37.9903 -17.0563 77.1226 -0.4670 36.7734 -5.0163 -0.7779 5.1261 -0.8123 -0.2274 -7.8971 5.9147 
